<svg width="33" height="33" viewBox="0 0 33 33" fill="none" xmlns="http://www.w3.org/2000/svg">
<path d="M31.53 17.7598L24.6 14.5698V5.42978C24.5968 5.23802 24.5385 5.05123 24.4322 4.89166C24.3258 4.73208 24.1758 4.60647 24 4.52978L16.5 1.07978C16.3683 1.01886 16.225 0.987305 16.08 0.987305C15.9349 0.987305 15.7916 1.01886 15.66 1.07978L8.15998 4.52978C7.9864 4.61011 7.8395 4.73854 7.7367 4.89983C7.63389 5.06112 7.5795 5.24851 7.57998 5.43978V14.5798L0.679979 17.7598C0.506399 17.8401 0.359497 17.9685 0.256696 18.1298C0.153894 18.2911 0.0995054 18.4785 0.0999786 18.6698V28.4498C0.0995054 28.641 0.153894 28.8284 0.256696 28.9897C0.359497 29.151 0.506399 29.2794 0.679979 29.3598L8.17998 32.8098C8.31162 32.8707 8.45493 32.9023 8.59998 32.9023C8.74503 32.9023 8.88834 32.8707 9.01998 32.8098L16.1 29.5498L23.18 32.8098C23.3116 32.8707 23.4549 32.9023 23.6 32.9023C23.745 32.9023 23.8883 32.8707 24.02 32.8098L31.52 29.3598C31.6936 29.2794 31.8405 29.151 31.9433 28.9897C32.0461 28.8284 32.1004 28.641 32.1 28.4498V18.6698C32.1013 18.4796 32.0484 18.293 31.9475 18.1318C31.8465 17.9706 31.7017 17.8416 31.53 17.7598ZM23.61 20.9998L18.5 18.6698L23.61 16.3198L28.72 18.6698L23.61 20.9998ZM22.61 14.5598L16.17 17.5598V9.86978C16.2905 9.86445 16.4091 9.83734 16.52 9.78978L22.6 6.99978V14.5798L22.61 14.5598ZM16.1 3.07978L21.21 5.42978L16.1 7.77978L11 5.42978L16.1 3.07978ZM8.59998 16.3098L13.71 18.6598L8.59998 20.9998L3.48998 18.6698L8.59998 16.3098ZM15.1 27.7998L8.59998 30.7998V23.1098C8.73954 23.1015 8.8758 23.064 8.99998 22.9998L15.08 20.1998L15.1 27.7998ZM30.1 27.7998L23.64 30.7998V23.1098C23.7659 23.0962 23.888 23.0589 24 22.9998L30.08 20.1998L30.1 27.7998Z" fill="black"/>
</svg>
